<mxfile host="app.diagrams.net" modified="2024-04-18T08:40:21.949Z" agent="Mozilla/5.0 (Windows NT 10.0; Win64; x64) AppleWebKit/537.36 (KHTML, like Gecko) Chrome/123.0.0.0 Safari/537.36 Edg/123.0.0.0" etag="jVoilMwmcDsMsnR9udkh" version="24.2.5" type="device">
  <diagram name="PÃ¡gina-1" id="N51lIz6SM3mKDa3Fnw8Z">
    <mxGraphModel dx="646" dy="367" grid="1" gridSize="10" guides="1" tooltips="1" connect="1" arrows="1" fold="1" page="1" pageScale="1" pageWidth="827" pageHeight="1169" math="0" shadow="0">
      <root>
        <mxCell id="0" />
        <mxCell id="1" parent="0" />
        <mxCell id="McLCSUHy8EXOlEv86t-H-2" value="Host" style="text;html=1;align=center;verticalAlign=middle;whiteSpace=wrap;rounded=0;" parent="1" vertex="1">
          <mxGeometry x="710" y="310" width="60" height="30" as="geometry" />
        </mxCell>
        <mxCell id="McLCSUHy8EXOlEv86t-H-3" value="ElasticSearch running on port 9200" style="shape=cylinder3;whiteSpace=wrap;html=1;boundedLbl=1;backgroundOutline=1;size=15;" parent="1" vertex="1">
          <mxGeometry x="621" y="190" width="80" height="90" as="geometry" />
        </mxCell>
        <mxCell id="McLCSUHy8EXOlEv86t-H-6" value="" style="rounded=0;whiteSpace=wrap;html=1;fillColor=none;" parent="1" vertex="1">
          <mxGeometry x="610" y="180" width="100" height="160" as="geometry" />
        </mxCell>
        <mxCell id="McLCSUHy8EXOlEv86t-H-15" value="" style="rounded=0;whiteSpace=wrap;html=1;" parent="1" vertex="1">
          <mxGeometry x="656" y="280" width="10" height="60" as="geometry" />
        </mxCell>
        <mxCell id="McLCSUHy8EXOlEv86t-H-16" value="1.2.3.4" style="text;html=1;align=center;verticalAlign=middle;whiteSpace=wrap;rounded=0;fillColor=#f5f5f5;fontColor=#333333;strokeColor=#666666;" parent="1" vertex="1">
          <mxGeometry x="631" y="330" width="60" height="30" as="geometry" />
        </mxCell>
        <mxCell id="-M_0_kRGi1k7tlt0JocL-2" value="" style="endArrow=classic;html=1;rounded=0;" edge="1" parent="1">
          <mxGeometry width="50" height="50" relative="1" as="geometry">
            <mxPoint x="660.68" y="420" as="sourcePoint" />
            <mxPoint x="660.68" y="360" as="targetPoint" />
          </mxGeometry>
        </mxCell>
      </root>
    </mxGraphModel>
  </diagram>
</mxfile>
